<svg xmlns="http://www.w3.org/2000/svg" viewBox="0 0 81 81"><defs><style>.cls-1{fill:#1a58a5;}.cls-2{fill:#5fb45d;}</style></defs><g id="Calque_2" data-name="Calque 2"><g id="Calque_2-2" data-name="Calque 2"><path class="cls-1" d="M0,0V36H36V0ZM21.26,20.56h-7V28.3H9.14V10.64l4.8,4.83h7.32Zm5.63-7.76H14.21v.6L9.11,8.3V7.7H26.89Z"/><polygon class="cls-2" points="9.14 10.63 9.14 28.3 14.23 28.3 14.23 20.57 21.25 20.57 21.25 15.46 13.94 15.46 9.14 10.63"/><polygon class="cls-2" points="9.11 8.29 14.21 13.4 14.21 12.79 26.89 12.79 26.89 7.7 9.11 7.7 9.11 8.29"/><path class="cls-2" d="M45,0V36H81V0ZM71.54,23.8a.38.38,0,0,0-.09.09A10.28,10.28,0,0,1,63,28.3H52.76V15.86L57.89,21v2.19h5.49A5.15,5.15,0,0,0,67.25,21v0A5.31,5.31,0,0,0,68.12,18,5.14,5.14,0,0,0,63,12.86H57.89v5.82l-5.13-5.13V7.7H63a10.28,10.28,0,0,1,8.43,4.41l.09.09a10.29,10.29,0,0,1,0,11.6Z"/><path class="cls-1" d="M71.45,12.11A10.28,10.28,0,0,0,63,7.7H52.76v5.85l5.13,5.13V12.86H63A5.14,5.14,0,0,1,68.12,18,5.31,5.31,0,0,1,67.25,21v0a5.15,5.15,0,0,1-3.87,2.19H57.89V21l-5.13-5.13V28.3H63a10.28,10.28,0,0,0,8.43-4.41.38.38,0,0,1,.09-.09,10.29,10.29,0,0,0,0-11.6Z"/><path class="cls-2" d="M20.7,57.54A1.77,1.77,0,0,0,19.44,57H14.61v.69l2.79,2.79h2A1.77,1.77,0,0,0,20.67,60a.8.8,0,0,0,.15-.18h0a1.65,1.65,0,0,0,.36-1,1.77,1.77,0,0,0-.06-.42A1.57,1.57,0,0,0,20.7,57.54Z"/><path class="cls-2" d="M0,45V81H36V45ZM14.64,73.23H9.54V62.58l5.1,5.1ZM25.17,62.49c-.15.18-.3.36-.48.54a6,6,0,0,1-4.26,1.77H14l-4.5-4.5V52.77H20.46a6,6,0,0,1,4.26,1.77,6.11,6.11,0,0,1,1.59,2.85l0-.06a5.51,5.51,0,0,1,.18,1.41A6,6,0,0,1,25.17,62.49Z"/><path class="cls-1" d="M26.31,57.39a6.11,6.11,0,0,0-1.59-2.85,6,6,0,0,0-4.26-1.77H9.54V60.3L14,64.8h6.39A6,6,0,0,0,24.69,63c.18-.18.33-.36.48-.54a6,6,0,0,0,1.29-3.75,5.51,5.51,0,0,0-.18-1.41Zm-5.46,2.43h0a.8.8,0,0,1-.15.18,1.77,1.77,0,0,1-1.26.51h-2l-2.79-2.79V57h4.83a1.77,1.77,0,0,1,1.26.51,1.57,1.57,0,0,1,.45.81,1.77,1.77,0,0,1,.06.42A1.65,1.65,0,0,1,20.85,59.82Z"/><polygon class="cls-1" points="9.54 73.23 14.64 73.23 14.64 67.68 9.54 62.58 9.54 73.23"/><path class="cls-1" d="M45,45V81H81V45ZM56.24,73.47h-6L59.08,59l3,4.92Zm13.52,0-1.22-2L60,57.39l3-4.89,12.72,21Z"/><polygon class="cls-2" points="50.27 73.47 56.23 73.47 62.05 63.9 59.09 58.98 50.27 73.47"/><polygon class="cls-2" points="60.05 57.39 68.53 71.46 69.77 73.5 75.73 73.5 63.02 52.5 60.05 57.39"/></g></g></svg>