<svg xmlns="http://www.w3.org/2000/svg" viewBox="0 0 202.69 106.03"><defs><style>.cls-1{fill:#1a58a5;}.cls-2{fill:#5fb45d;}</style></defs><g id="Calque_2" data-name="Calque 2"><g id="Calque_2-2" data-name="Calque 2"><path class="cls-1" d="M60.43,0V36h36V0ZM81.69,20.56h-7V28.3h-5.1V10.64l4.8,4.83h7.32Zm5.64-7.76H74.64v.6l-5.1-5.1V7.7H87.33Z"/><polygon class="cls-2" points="69.57 10.63 69.57 28.3 74.67 28.3 74.67 20.57 81.69 20.57 81.69 15.46 74.37 15.46 69.57 10.63"/><polygon class="cls-2" points="69.54 8.29 74.64 13.4 74.64 12.79 87.33 12.79 87.33 7.7 69.54 7.7 69.54 8.29"/><path class="cls-2" d="M105.43,0V36h36V0ZM132,23.8l-.09.09a10.28,10.28,0,0,1-8.43,4.41H113.19V15.86L118.32,21v2.19h5.49A5.13,5.13,0,0,0,127.68,21v0a5.31,5.31,0,0,0,.87-2.94,5.12,5.12,0,0,0-5.1-5.15h-5.13v5.82l-5.13-5.13V7.7h10.26a10.28,10.28,0,0,1,8.43,4.41l.09.09a10.24,10.24,0,0,1,0,11.6Z"/><path class="cls-1" d="M131.88,12.11a10.28,10.28,0,0,0-8.43-4.41H113.19v5.85l5.13,5.13V12.86h5.13a5.12,5.12,0,0,1,5.1,5.15,5.31,5.31,0,0,1-.87,2.94v0a5.13,5.13,0,0,1-3.87,2.19h-5.49V21l-5.13-5.13V28.3h10.26a10.28,10.28,0,0,0,8.43-4.41l.09-.09a10.24,10.24,0,0,0,0-11.6Z"/><path class="cls-2" d="M81.13,57.54A1.77,1.77,0,0,0,79.87,57H75v.69l2.79,2.79h2A1.77,1.77,0,0,0,81.1,60a.8.8,0,0,0,.15-.18h0a1.65,1.65,0,0,0,.36-1,1.77,1.77,0,0,0-.06-.42A1.57,1.57,0,0,0,81.13,57.54Z"/><path class="cls-2" d="M60.43,45V81h36V45ZM75.07,73.23H70V62.58l5.09,5.1ZM85.6,62.49c-.15.18-.3.36-.48.54a6,6,0,0,1-4.26,1.77H74.48L70,60.3V52.77H80.89a6,6,0,0,1,4.26,1.77,6.11,6.11,0,0,1,1.59,2.85l0-.06a5.51,5.51,0,0,1,.18,1.41A6,6,0,0,1,85.6,62.49Z"/><path class="cls-1" d="M86.74,57.39a6.11,6.11,0,0,0-1.59-2.85,6,6,0,0,0-4.26-1.77H70V60.3l4.5,4.5h6.38A6,6,0,0,0,85.12,63c.18-.18.33-.36.48-.54a6,6,0,0,0,1.29-3.75,5.51,5.51,0,0,0-.18-1.41Zm-5.46,2.43h0a.8.8,0,0,1-.15.18,1.77,1.77,0,0,1-1.26.51h-2L75,57.72V57h4.83a1.77,1.77,0,0,1,1.26.51,1.57,1.57,0,0,1,.45.81,1.77,1.77,0,0,1,.06.42A1.65,1.65,0,0,1,81.28,59.82Z"/><polygon class="cls-1" points="69.97 73.23 75.08 73.23 75.08 67.68 69.97 62.58 69.97 73.23"/><path class="cls-1" d="M105.43,45V81h36V45Zm11.24,28.47h-6L119.52,59l3,4.92Zm13.53,0-1.23-2-8.49-14.07,3-4.89,12.72,21Z"/><polygon class="cls-2" points="110.7 73.47 116.67 73.47 122.49 63.9 119.52 58.98 110.7 73.47"/><polygon class="cls-2" points="120.48 57.39 128.97 71.46 130.2 73.5 136.17 73.5 123.45 52.5 120.48 57.39"/><path class="cls-2" d="M0,105.27V93a1.64,1.64,0,0,1,.16-.74,1.85,1.85,0,0,1,.41-.58,1.94,1.94,0,0,1,.58-.38,1.82,1.82,0,0,1,.68-.13h8.42a.51.51,0,0,1,.38.17.5.5,0,0,1,.16.37v2.23a.44.44,0,0,1-.16.36.51.51,0,0,1-.38.14H2.69a1.14,1.14,0,0,1,.81.34,1.07,1.07,0,0,1,.34.8v1.78h5a.49.49,0,0,1,.55.55v2.2a.5.5,0,0,1-.15.39.57.57,0,0,1-.4.14H2.69a1.2,1.2,0,0,1,.79.31,1,1,0,0,1,.36.8v3.53a.56.56,0,0,1-.14.38.47.47,0,0,1-.38.14H.52a.48.48,0,0,1-.37-.14A.52.52,0,0,1,0,105.27Z"/><path class="cls-2" d="M13,105.29V93a1.75,1.75,0,0,1,.54-1.32,1.83,1.83,0,0,1,1.29-.51h1.68a.45.45,0,0,1,.37.15.48.48,0,0,1,.15.37v13.59a.49.49,0,0,1-.15.36.44.44,0,0,1-.37.17h-3a.55.55,0,0,1-.52-.53Z"/><path class="cls-2" d="M20,105.27V93a1.63,1.63,0,0,1,.16-.73,1.69,1.69,0,0,1,.42-.57,2.36,2.36,0,0,1,.59-.37,1.65,1.65,0,0,1,.66-.13h1.63a.43.43,0,0,1,.36.15.48.48,0,0,1,.15.37v10.19a.72.72,0,0,0,.17.41.55.55,0,0,0,.48.24H30.2a.6.6,0,0,1,.39.14.49.49,0,0,1,.15.38v2.23a.5.5,0,0,1-.15.39.59.59,0,0,1-.39.13H20.47a.49.49,0,0,1-.35-.16A.51.51,0,0,1,20,105.27Z"/><path class="cls-2" d="M46.58,91.24a.56.56,0,0,1,.38.14.53.53,0,0,1,.14.39v13.58a.46.46,0,0,1-.14.36.52.52,0,0,1-.38.15H43.91a.5.5,0,0,1-.37-.16.49.49,0,0,1-.15-.35V98.17c0-.07,0-.1-.11-.1a.12.12,0,0,0-.1,0l-2,3.76a.83.83,0,0,1-.74.48H39.27a.87.87,0,0,1-.74-.48l-2-3.74a.13.13,0,0,0-.11-.06c-.07,0-.1,0-.1.1v7.18a.48.48,0,0,1-.17.36.5.5,0,0,1-.38.15H33.12a.5.5,0,0,1-.38-.15.43.43,0,0,1-.15-.36V93a1.5,1.5,0,0,1,.19-.78,1.8,1.8,0,0,1,.46-.55,2,2,0,0,1,.57-.31,1.51,1.51,0,0,1,.5-.11h1.18a.83.83,0,0,1,.76.44L39.73,98a.11.11,0,0,0,.11.07s.07,0,.1-.07l3.51-6.28a.82.82,0,0,1,.75-.44Z"/><path class="cls-2" d="M61.89,101.41a3.76,3.76,0,0,1-.6,2.16A4.83,4.83,0,0,1,59.77,105a7.28,7.28,0,0,1-2.06.79,10.67,10.67,0,0,1-2.21.24,11.46,11.46,0,0,1-2.13-.21,7.19,7.19,0,0,1-2-.71,4.73,4.73,0,0,1-1.54-1.3,3.53,3.53,0,0,1-.68-2,.41.41,0,0,1,.13-.32.51.51,0,0,1,.33-.13h2.79a.69.69,0,0,1,.22,0,.48.48,0,0,1,.18.06,1.56,1.56,0,0,1,.36.29,1.77,1.77,0,0,0,1,.92,4,4,0,0,0,1.37.24c.21,0,.45,0,.73,0a2.94,2.94,0,0,0,.75-.18,1.75,1.75,0,0,0,.6-.4.94.94,0,0,0,.25-.68.87.87,0,0,0-.42-.82,4.1,4.1,0,0,0-.88-.4,5.93,5.93,0,0,0-.85-.24l-1.14-.25a13.85,13.85,0,0,1-1.87-.49,5.79,5.79,0,0,1-1.61-.81,3.65,3.65,0,0,1-1.56-3.15,3.79,3.79,0,0,1,.76-2.38,4.8,4.8,0,0,1,2-1.52A8,8,0,0,1,55.36,91a8.9,8.9,0,0,1,1.43.12,7.18,7.18,0,0,1,1.45.37,6,6,0,0,1,1.32.7,4.5,4.5,0,0,1,1,1,3.43,3.43,0,0,1,.77,1.86.45.45,0,0,1-.13.32.43.43,0,0,1-.31.15H58a.8.8,0,0,1-.69-.38,1.34,1.34,0,0,0-.65-.76,2.89,2.89,0,0,0-1.3-.29,4.58,4.58,0,0,0-.64,0,1.69,1.69,0,0,0-.6.19,1.31,1.31,0,0,0-.45.39,1.08,1.08,0,0,0-.16.62,1.05,1.05,0,0,0,.63.94,9.66,9.66,0,0,0,2.35.7c.66.12,1.31.27,2,.45a6.21,6.21,0,0,1,1.74.74,3.94,3.94,0,0,1,1.22,1.25A3.66,3.66,0,0,1,61.89,101.41Z"/><path class="cls-2" d="M68.35,105.33V93.05a1.71,1.71,0,0,1,.56-1.31,1.79,1.79,0,0,1,1.27-.52h4.2a9.61,9.61,0,0,1,2.59.33,5.59,5.59,0,0,1,2.07,1,4.83,4.83,0,0,1,1.39,1.78A6.45,6.45,0,0,1,81,96.93c0,.2,0,.43,0,.71v1.79a6.73,6.73,0,0,1,0,.69q-.18,5.75-6.49,5.74h-5.6a.51.51,0,0,1-.53-.53Zm6-2.6a2.56,2.56,0,0,0,2-.66,2.87,2.87,0,0,0,.63-2c0-.19,0-.42,0-.68s0-.55,0-.87,0-.61,0-.87,0-.49,0-.68a2.39,2.39,0,0,0-2.71-2.63H71.13a1.08,1.08,0,0,1,.81.35,1,1,0,0,1,.34.74v6.64a.65.65,0,0,0,.18.46.6.6,0,0,0,.47.19Z"/><path class="cls-2" d="M83.47,105.29V93A1.76,1.76,0,0,1,84,91.69a1.81,1.81,0,0,1,1.28-.51h8.57a.53.53,0,0,1,.54.55V93.8a.43.43,0,0,1-.14.36.54.54,0,0,1-.4.15H86.12a1.07,1.07,0,0,1,.83.36,1.08,1.08,0,0,1,.32.77v.88a.77.77,0,0,0,.16.45.55.55,0,0,0,.47.21h4.58a.53.53,0,0,1,.55.54v1.89a.55.55,0,0,1-.55.55H86.12a1.14,1.14,0,0,1,.82.33,1.07,1.07,0,0,1,.33.76v1a.72.72,0,0,0,.17.44.57.57,0,0,0,.46.21H94a.48.48,0,0,1,.54.54v2.06a.5.5,0,0,1-.15.39.6.6,0,0,1-.39.14H84a.55.55,0,0,1-.53-.53Z"/><path class="cls-2" d="M113.69,96a4.92,4.92,0,0,1-.46,2.24A4.06,4.06,0,0,1,112,99.72a5.11,5.11,0,0,1-1.84.79,10,10,0,0,1-2.24.25h-1.77a.65.65,0,0,0-.44.16.63.63,0,0,0-.19.47v3.88a.51.51,0,0,1-.52.52h-3a.49.49,0,0,1-.36-.15.5.5,0,0,1-.16-.37V93a1.8,1.8,0,0,1,.17-.79,1.72,1.72,0,0,1,.44-.58,2.09,2.09,0,0,1,.59-.35,2,2,0,0,1,.63-.11h4.62a9.51,9.51,0,0,1,2.25.26,5.32,5.32,0,0,1,1.85.84,4,4,0,0,1,1.24,1.5A5.13,5.13,0,0,1,113.69,96Zm-4.07,0a1.65,1.65,0,0,0-1.83-1.83h-3.55a1.18,1.18,0,0,1,.38.08,1.09,1.09,0,0,1,.39.22,1.18,1.18,0,0,1,.3.36.93.93,0,0,1,.13.5v1.8a.59.59,0,0,0,.2.47.64.64,0,0,0,.45.18h1.7a1.87,1.87,0,0,0,1.35-.46A1.75,1.75,0,0,0,109.62,96Z"/><path class="cls-2" d="M115.65,105.27V93a1.77,1.77,0,0,1,.15-.73,2,2,0,0,1,.42-.57,2.55,2.55,0,0,1,.59-.37,1.72,1.72,0,0,1,.66-.13h1.64a.46.46,0,0,1,.36.15.48.48,0,0,1,.15.37v10.19a.77.77,0,0,0,.16.41.56.56,0,0,0,.49.24h5.62a.56.56,0,0,1,.39.14.46.46,0,0,1,.16.38v2.23a.47.47,0,0,1-.16.39.56.56,0,0,1-.39.13h-9.72a.51.51,0,0,1-.36-.16A.5.5,0,0,1,115.65,105.27Z"/><path class="cls-2" d="M128.22,105.29V93a1.76,1.76,0,0,1,.55-1.32,1.81,1.81,0,0,1,1.28-.51h8.57a.53.53,0,0,1,.39.16.53.53,0,0,1,.16.39V93.8a.43.43,0,0,1-.15.36.54.54,0,0,1-.4.15h-7.75a1.07,1.07,0,0,1,.83.36,1.09,1.09,0,0,1,.33.77v.88a.76.76,0,0,0,.15.45.57.57,0,0,0,.48.21h4.57a.53.53,0,0,1,.55.54v1.89a.55.55,0,0,1-.55.55h-6.36a1.14,1.14,0,0,1,.82.33,1.08,1.08,0,0,1,.34.76v1a.7.7,0,0,0,.16.44.58.58,0,0,0,.47.21h6.13a.48.48,0,0,1,.54.54v2.06a.5.5,0,0,1-.15.39.6.6,0,0,1-.39.14h-10a.55.55,0,0,1-.53-.53Z"/><path class="cls-2" d="M141.68,105.29V93a1.76,1.76,0,0,1,.55-1.32,1.81,1.81,0,0,1,1.28-.51h1.68a.46.46,0,0,1,.38.15.48.48,0,0,1,.15.37v13.59a.49.49,0,0,1-.15.36.45.45,0,0,1-.38.17h-3a.55.55,0,0,1-.53-.53Z"/><path class="cls-2" d="M148.62,105.27V93a1.81,1.81,0,0,1,.52-1.29,1.74,1.74,0,0,1,1.3-.54h.69a2,2,0,0,1,.55.09,1.41,1.41,0,0,1,.65.56l2.23,3.48.95,1.51c.23.37.45.71.66,1l.53.8.25.4s0,0,.09,0,.1,0,.1-.11V93a1.7,1.7,0,0,1,.57-1.33,1.9,1.9,0,0,1,1.28-.5h1.34a.5.5,0,0,1,.38.15.6.6,0,0,1,.15.39v13.55a.61.61,0,0,1-.15.38.52.52,0,0,1-.38.16H158a.79.79,0,0,1-.71-.39L155,101.93c-.41-.61-.73-1.11-1-1.48l-.67-1c-.21-.31-.38-.58-.52-.8l-.26-.38s-.07-.07-.1-.07a.1.1,0,0,0-.11.11v7a.47.47,0,0,1-.17.38.52.52,0,0,1-.37.14h-2.67a.55.55,0,0,1-.52-.52Z"/><path class="cls-2" d="M167,105.73a.55.55,0,0,1-.13-.31.38.38,0,0,1,0-.19l4.87-13.4a.83.83,0,0,1,.84-.61h3.25a.83.83,0,0,1,.84.61l4.87,13.4a.38.38,0,0,1,0,.19.48.48,0,0,1-.44.44h-2.71a.72.72,0,0,1-.72-.46l-1.09-3a14.24,14.24,0,0,1-1.53.48,15,15,0,0,1-1.5.28c-.49.06-.94.11-1.36.13l-1.09,0h-.49l-.31,0a.9.9,0,0,1,.62.42.86.86,0,0,1,0,.84l-.29.8a.72.72,0,0,1-.71.46h-2.71A.51.51,0,0,1,167,105.73Zm5.33-5.37c.4,0,.8-.08,1.22-.15s.75-.14,1.15-.24a5.64,5.64,0,0,0,1.14-.45l-1.62-4.62Z"/><path class="cls-2" d="M183.26,105.29V93a1.76,1.76,0,0,1,.55-1.32,1.81,1.81,0,0,1,1.28-.51h1.68a.46.46,0,0,1,.38.15.48.48,0,0,1,.15.37v13.59a.49.49,0,0,1-.15.36.45.45,0,0,1-.38.17h-3a.55.55,0,0,1-.53-.53Z"/><path class="cls-2" d="M202.25,105.82h-3a.87.87,0,0,1-.84-.55l-2.15-4.2a.61.61,0,0,0-.56-.34H193a1,1,0,0,1,.83.37,1.2,1.2,0,0,1,.3.75v3.46a.45.45,0,0,1-.15.36.48.48,0,0,1-.37.15h-2.88a.54.54,0,0,1-.37-.16.51.51,0,0,1-.16-.35V93a1.74,1.74,0,0,1,.55-1.3A1.81,1.81,0,0,1,192,91.2h4.45a9.55,9.55,0,0,1,2.24.25,5.38,5.38,0,0,1,1.87.82,4.11,4.11,0,0,1,1.29,1.48,4.78,4.78,0,0,1,.48,2.24,4.66,4.66,0,0,1-.56,2.27,4.32,4.32,0,0,1-1.68,1.63.31.31,0,0,0-.18.26.34.34,0,0,0,0,.23l2.65,4.79a.53.53,0,0,1,.06.23.38.38,0,0,1-.14.29A.45.45,0,0,1,202.25,105.82ZM198.3,96a1.65,1.65,0,0,0-.51-1.31,1.93,1.93,0,0,0-1.34-.46h-3.61a1.06,1.06,0,0,1,.84.36,1.14,1.14,0,0,1,.32.76V97a.61.61,0,0,0,.17.44.62.62,0,0,0,.45.19h1.83a2.12,2.12,0,0,0,1.34-.41A1.55,1.55,0,0,0,198.3,96Z"/></g></g></svg>